<?xml version="1.0" encoding="UTF-8" standalone="no"?>
<!-- Created with Inkscape (http://www.inkscape.org/) -->

<svg
   width="300mm"
   height="300mm"
   viewBox="0 0 300 300"
   version="1.1"
   id="svg1"
   xml:space="preserve"
   inkscape:version="1.4.2 (ebf0e940, 2025-05-08)"
   sodipodi:docname="logo.svg"
   xmlns:inkscape="http://www.inkscape.org/namespaces/inkscape"
   xmlns:sodipodi="http://sodipodi.sourceforge.net/DTD/sodipodi-0.dtd"
   xmlns="http://www.w3.org/2000/svg"
   xmlns:svg="http://www.w3.org/2000/svg"
   xmlns:rdf="http://www.w3.org/1999/02/22-rdf-syntax-ns#"
   xmlns:cc="http://creativecommons.org/ns#"><sodipodi:namedview
     id="namedview1"
     pagecolor="#ffffff"
     bordercolor="#000000"
     borderopacity="0.25"
     inkscape:showpageshadow="2"
     inkscape:pageopacity="0.0"
     inkscape:pagecheckerboard="0"
     inkscape:deskcolor="#d1d1d1"
     inkscape:document-units="mm"
     showguides="true"
     inkscape:zoom="0.54930123"
     inkscape:cx="525.21273"
     inkscape:cy="423.26503"
     inkscape:window-width="1760"
     inkscape:window-height="938"
     inkscape:window-x="0"
     inkscape:window-y="25"
     inkscape:window-maximized="0"
     inkscape:current-layer="svg1" /><defs
     id="defs1"><inkscape:path-effect
       effect="simplify"
       id="path-effect4"
       is_visible="true"
       lpeversion="1.3"
       threshold="5"
       steps="3.9013158"
       smooth_angles="360"
       helper_size="10"
       simplify_individual_paths="false"
       simplify_just_coalesce="false" /><inkscape:path-effect
       effect="simplify"
       id="path-effect3"
       is_visible="true"
       lpeversion="1.3"
       threshold="5.6015461"
       steps="19.375"
       smooth_angles="360"
       helper_size="11.743421"
       simplify_individual_paths="false"
       simplify_just_coalesce="false" /></defs><g
     inkscape:label="Layer 1"
     inkscape:groupmode="layer"
     id="layer1"
     style="display:inline"><path
       sodipodi:type="star"
       style="display:inline;fill:#ebe0d8;fill-opacity:1;stroke:#000000;stroke-width:0.264583;stroke-opacity:1"
       id="path1"
       inkscape:flatsided="true"
       sodipodi:sides="6"
       sodipodi:cx="31.179449"
       sodipodi:cy="22.620386"
       sodipodi:r1="97.827438"
       sodipodi:r2="84.721046"
       sodipodi:arg1="0.52359878"
       sodipodi:arg2="1.0471976"
       inkscape:rounded="0"
       inkscape:randomized="0"
       d="m 115.9005,71.534106 -84.721051,48.913714 -84.721047,-48.913715 0,-97.827438 84.721048,-48.913719 84.72105,48.913719 z"
       transform="matrix(1.4728186,0,0,1.4588365,100.92306,120.19937)"
       inkscape:label="hex" /><path
       style="fill:#b39c6a;fill-opacity:1;stroke:#000000;stroke-width:0.785551;stroke-dasharray:none;stroke-opacity:1"
       d="m 84.566145,184.8364 c 0,0 14.392933,20.11672 -19.004251,27.27327 -16.247908,3.4817 -20.019745,2.32114 -20.019745,2.32114 v 7.97887 c 0,0 47.583124,2.75634 53.530988,-24.95214 C 105.02103,169.74906 84.566145,184.8364 84.566145,184.8364 Z"
       id="path15"
       sodipodi:nodetypes="csccsc"
       inkscape:label="tail1" /><path
       style="fill:#b69e6e;fill-opacity:1;stroke:#000000;stroke-width:0.785551;stroke-dasharray:none;stroke-opacity:1"
       d="m 60.663611,193.79815 -12.76564,-9.83334 -0.435785,10.12348 12.621145,9.13945 z"
       id="path17"
       inkscape:label="tail part 3"
       sodipodi:nodetypes="ccccc" /><path
       style="fill:#b69e6e;fill-opacity:1;stroke:#000000;stroke-width:0.785551;stroke-dasharray:none;stroke-opacity:1"
       d="m 57.885104,173.66887 c 0,0 -14.754187,-3.94508 -17.011782,-3.53461 -2.257597,0.41047 -2.143577,1.39104 -2.143577,1.39104 0,0 0.342061,1.04899 1.345436,1.82433 1.003376,0.77533 5.883433,2.82769 5.883433,2.82769 l 10.375819,4.58361 z"
       id="path18"
       inkscape:label="tip" /><path
       style="display:inline;fill:#6b6799;fill-opacity:1;stroke:#000000;stroke-width:1.30925;stroke-dasharray:none;stroke-opacity:1"
       d="m 185.71373,105.71735 c 0,0 -6.69384,-7.061854 -11.82799,-10.326024 C 161.89466,87.76768 132.68105,87.189041 116.811,91.260917 105.76413,94.095281 89.099616,102.5422 85.082026,107.78255 c -4.318156,5.63238 -23.468233,34.3575 -18.962331,45.4345 4.5059,11.07701 9.762784,28.91286 16.333889,31.16581 6.571094,2.25295 9.762752,1.87746 12.76667,5.63237 3.003917,3.75492 -1.501964,2.62845 6.007836,10.13828 7.50983,7.50983 18.58684,20.08881 19.33783,21.77852 0.75099,1.68971 4.88138,4.88139 7.88532,6.00787 3.00394,1.12647 6.94659,1.12647 9.57504,0.37549 2.62844,-0.75098 8.90057,-0.0145 5.44464,-2.25295 -2.58736,-1.67592 -2.54042,-1.15962 -6.5403,-3.22827 -3.99987,-2.06865 -7.91614,-7.66099 -7.91614,-7.66099 0,0 -9.95053,-9.38729 -9.57504,-12.01573 0.37549,-2.62845 -3.73935,-9.26818 4.05996,-8.10476 15.38308,2.29471 30.0331,-6.96449 48.13339,-7.10266 1.60404,-0.0123 2.4407,-2.0652 5.44463,2.44069 3.00393,4.50591 6.57111,6.00787 7.13434,8.63632 0.56324,2.62843 3.75492,9.0118 3.75492,9.76279 0,0.75098 1.12648,4.1304 1.12648,6.19561 0,2.0652 -2.89849,2.91786 3.37942,3.75491 5.63237,0.75099 14.26868,2.06521 11.82799,-0.18775 -2.4407,-2.25294 -4.69365,-3.19167 -6.75886,-7.32208 -2.0652,-4.13042 -4.50589,-9.95054 -4.50589,-13.14221 0,-3.19168 1.68971,-3.94267 -0.37549,-7.3221 -2.06521,-3.37942 0.37549,-3.94265 0.56324,-4.88138 0.18774,-0.93874 0.93872,-17.64812 0.93872,-17.64812 l 6.19562,-22.71724 -6.57111,-8.63631 -4.5059,-13.32996 z"
       id="path9"
       sodipodi:nodetypes="csssssssssssscsssssssssssssccccc"
       inkscape:label="body" /><path
       style="fill:#d3ba91;fill-opacity:1;stroke:#000000;stroke-width:0.785551;stroke-dasharray:none;stroke-opacity:1"
       d="m 228.96895,126.9264 c -0.56139,-0.59648 -0.28069,-11.96469 -9.47351,-8.98229 -9.19281,2.9824 9.47351,8.98229 9.47351,8.98229 z"
       id="path8"
       inkscape:label="back ear" /><path
       style="display:inline;fill:#ac733e;fill-opacity:1;stroke:#000000;stroke-width:1.30925;stroke-dasharray:none;stroke-opacity:1"
       d="m 193.50264,185.64406 c 2.52003,-2.1917 6.46538,-3.3472 10.63782,-3.23534 7.14146,-0.82553 15.62483,1.64739 19.93828,7.84161 8.12963,8.49053 16.48563,18.85984 22.85169,28.39047 2.44776,3.23961 5.6145,6.98564 10.19788,5.34094 5.19065,-1.47392 -3.04284,-6.45028 -2.34743,-10.37018 -1.72684,-5.83299 -5.53958,-10.87458 -6.2298,-17.0366 -1.70115,-6.7163 -1.35041,-13.71896 -2.58971,-20.51821 -0.0288,-5.03769 -2.09097,-12.61558 -2.12886,-17.63171 -0.70295,-4.79533 -2.4359,-6.30706 -3.08363,-11.11733 -1.46765,-3.79626 -4.01953,-7.21674 -5.28826,-11.1142 -1.96351,-4.56547 -6.07725,-7.6848 -8.79989,-11.69486 -3.66829,-3.57295 -7.27197,-7.63455 -12.1999,-9.56687 -6.57623,-3.10468 -13.73189,-4.44379 -20.70753,-6.2755 -3.53809,-0.87165 -10.70856,-6.15172 -11.99429,-0.21322 -0.28829,5.15384 0.92434,10.24789 2.13773,15.21597 2.7839,3.65984 -0.98128,7.87111 0.19869,11.76635 3.71892,4.47253 10.55568,5.13082 13.65354,10.17747 1.59103,5.67694 -3.11668,10.30348 -5.46923,14.98526 -1.63627,4.96393 -2.69232,10.49782 -2.06102,15.78954 0.46576,2.65822 0.78915,9.8083 3.28903,9.31804"
       id="path2"
       sodipodi:nodetypes="ccccccccccccccccccccc"
       inkscape:label="head" /><path
       style="display:inline;fill:#b593e7;fill-opacity:1;stroke:#000000;stroke-width:0.785551;stroke-dasharray:none;stroke-opacity:1"
       d="m 249.35225,221.31091 7.82747,-2.19594 1.38131,2.05427 0.28335,1.13339 -0.0709,0.60212 -0.46044,0.56669 -1.02713,0.49586 -1.5584,0.46044 -2.37305,-0.14168 -1.66466,-0.74379 z"
       id="path5"
       inkscape:label="nose" /><path
       style="display:inline;fill:#000000;fill-opacity:1;stroke:#000000;stroke-width:0.26185;stroke-opacity:1"
       d="m 217.8942,154.89177 c 0,0 -6.6314,6.63139 -1.49741,9.84014 5.13398,3.20874 10.05405,0.64175 10.05405,0.64175 0,0 5.134,-13.69064 -8.55664,-10.48189 z"
       id="path4"
       inkscape:label="EYE" /><path
       style="fill:#f9fffb;fill-opacity:1;stroke:none;stroke-width:0.26185;stroke-opacity:1"
       d="m 220.97389,156.29326 c 0,0 -0.15343,0.42619 -0.0512,0.68191 0.10229,0.25571 0.40915,0.56257 1.05696,0.57962 0.64781,0.017 1.21039,0.25571 1.36382,0.3921 0.15343,0.13637 0.59667,0.17048 0.59667,0.17048 l -0.32391,-0.78421 c 0,0 -1.17629,-1.14219 -2.6424,-1.0399 z"
       id="path6"
       inkscape:label="twinkle 1" /><path
       style="fill:#f9fffb;fill-opacity:1;stroke:none;stroke-width:0.26185;stroke-opacity:1"
       d="m 220.76932,158.33898 c 0,0 -0.15343,0.51144 0.28981,0.57962 0.44325,0.0682 0.69896,-0.0682 0.81829,-0.0852 0.11934,-0.017 -0.18752,-0.6819 -1.1081,-0.49438 z"
       id="path7"
       inkscape:label="twinkle 2" /><path
       style="display:inline;fill:#d3ba91;fill-opacity:1;stroke:#000000;stroke-width:0.785551;stroke-dasharray:none;stroke-opacity:1"
       d="m 219.53252,135.87039 c 0.77682,-0.36047 -1.75437,-3.39909 -1.75437,-3.39909 l -0.43859,-3.61838 c 0,0 -3.83769,-9.42975 -7.67537,-7.01749 -3.83768,2.41226 -1.5686,0.0936 -6.79818,9.21045 -2.9701,5.17782 -3.50874,5.92098 -3.50874,5.92098 0,0 -1.86401,4.16663 1.31578,7.12713 3.1798,2.9605 1.86402,6.14029 1.86402,6.14029 0,0 3.86037,-8.26874 16.99545,-14.36389 z"
       id="ear"
       sodipodi:nodetypes="sccsscscs" /><rect
       style="fill:#6d6357;fill-opacity:1;stroke:#000000;stroke-width:1;stroke-dasharray:none;stroke-opacity:1"
       id="rect10"
       width="8.8575201"
       height="132.82324"
       x="45.956562"
       y="98.146217" /><path
       sodipodi:type="star"
       style="fill:#34cc47;fill-opacity:1;stroke:#000000;stroke-width:0.264583;stroke-opacity:1"
       id="path10"
       inkscape:flatsided="true"
       sodipodi:sides="6"
       sodipodi:cx="20.95331"
       sodipodi:cy="38.164959"
       sodipodi:r1="10.813405"
       sodipodi:r2="31.804132"
       sodipodi:arg1="0.48995733"
       sodipodi:arg2="1.0135561"
       inkscape:rounded="0.19"
       inkscape:randomized="0.1"
       d="m 28.028388,44.485852 c -1.055687,1.730755 -4.465405,4.247842 -6.416482,4.6011 -1.951078,0.353257 -11.7676716,-2.888275 -12.9675824,-4.6033 -1.1999109,-1.715025 0.8753162,-12.058753 1.8120524,-13.962138 0.936736,-1.903385 6.509723,-5.133907 8.628198,-5.200772 2.118474,-0.06686 6.936189,6.226178 7.892252,8.128704 0.956063,1.902526 2.107248,9.305651 1.051562,11.036406 z"
       inkscape:transform-center-x="-0.52934251"
       inkscape:transform-center-y="-1.5576502"
       transform="matrix(0.98966998,0,0,0.98966998,31.567393,48.525877)" /><path
       sodipodi:type="star"
       style="fill:#6d6357;fill-opacity:1;stroke:#000000;stroke-width:3.76469;stroke-dasharray:none;stroke-opacity:1"
       id="path11"
       inkscape:flatsided="true"
       sodipodi:sides="4"
       sodipodi:cx="-16.089149"
       sodipodi:cy="66.601593"
       sodipodi:r1="24.320807"
       sodipodi:r2="21.062437"
       sodipodi:arg1="0"
       sodipodi:arg2="0.78539816"
       inkscape:rounded="0.19"
       inkscape:randomized="0"
       d="m 8.231657,66.601593 c 0,6.535015 -17.7857917,24.320807 -24.320806,24.320807 -6.535015,0 -24.320807,-17.785792 -24.320807,-24.320807 0,-6.535015 17.785792,-24.320806 24.320807,-24.320806 6.5350143,0 24.320806,17.785791 24.320806,24.320806 z"
       inkscape:transform-center-x="0.24131944"
       inkscape:transform-center-y="0.01078575"
       transform="matrix(0.25177537,-0.14537501,0.24727422,0.13746304,37.501228,86.696689)" /><path
       sodipodi:type="star"
       style="fill:#6d6357;fill-opacity:1;stroke:#000000;stroke-width:4.08613;stroke-dasharray:none;stroke-opacity:1"
       id="path11-4"
       inkscape:flatsided="true"
       sodipodi:sides="4"
       sodipodi:cx="-16.089149"
       sodipodi:cy="66.601593"
       sodipodi:r1="24.320807"
       sodipodi:r2="21.062437"
       sodipodi:arg1="0"
       sodipodi:arg2="0.78539816"
       inkscape:rounded="0.19"
       inkscape:randomized="0"
       d="m 8.231657,66.601593 c 0,6.535015 -17.7857917,24.320807 -24.320806,24.320807 -6.535015,0 -24.320807,-17.785792 -24.320807,-24.320807 0,-6.535015 17.785792,-24.320806 24.320807,-24.320806 6.5350143,0 24.320806,17.785791 24.320806,24.320806 z"
       inkscape:transform-center-x="0.20470791"
       inkscape:transform-center-y="0.010792623"
       transform="matrix(0.21357789,-0.14547237,0.20975962,0.1375551,39.414292,94.377632)" /><path
       style="fill:none;fill-opacity:1;stroke:#000000;stroke-width:0.26185;stroke-opacity:1"
       d="m 41.936309,78.740207 c 0.163496,0 8.992332,0.490492 8.992332,0.490492 l -0.490491,-5.59977"
       id="path12"
       sodipodi:nodetypes="ccc" /><path
       style="fill:none;fill-opacity:1;stroke:#000000;stroke-width:0.26185;stroke-opacity:1"
       d="m 58.040757,81.519656 -7.071241,-2.248082 1.103605,11.19954 7.439109,1.798466"
       id="path13"
       sodipodi:nodetypes="cccc" /><path
       style="fill:none;fill-opacity:1;stroke:#000000;stroke-width:0.26185;stroke-opacity:1"
       d="M 51.991372,90.471114 40.178718,92.514826"
       id="path14" /><path
       style="fill:#b39c6a;fill-opacity:1;stroke:#000000;stroke-width:0.785551;stroke-dasharray:none;stroke-opacity:1"
       d="m 63.387192,200.05491 c 0.396164,7.96028 -16.709154,21.38862 -16.709154,21.38862 -4.78733,3.04648 -13.926778,2.9014 -7.978882,-5.51269 5.947894,-8.4141 14.21692,-15.52256 22.050734,-22.05074 1.239629,0.90578 2.474331,2.18696 2.637302,6.17481 z"
       id="path16"
       sodipodi:nodetypes="ccscc" /><path
       style="fill:#b39c6a;fill-opacity:1;stroke:#000000;stroke-width:0.785551;stroke-dasharray:none;stroke-opacity:1"
       d="m 60.53771,179.59729 c -0.36065,5.77694 -12.993546,14.4262 -12.993546,14.4262 -3.530347,2.24658 -10.698402,0.9192 -5.883911,-4.95954 4.788611,-5.84713 10.484062,-10.5526 16.260994,-15.36671 2.240634,0.71576 2.775669,2.77115 2.616463,5.90005 z"
       id="path16-5"
       sodipodi:nodetypes="ccscc" /><text
       xml:space="preserve"
       style="font-style:normal;font-variant:normal;font-weight:normal;font-stretch:normal;font-size:34.9651px;font-family:Silom;-inkscape-font-specification:'Silom, Normal';font-variant-ligatures:normal;font-variant-caps:normal;font-variant-numeric:normal;font-variant-east-asian:normal;text-align:start;writing-mode:lr-tb;direction:ltr;text-anchor:start;fill:#ffffff;fill-opacity:1;stroke:#c0c0c0;stroke-width:4.32257e-08;stroke-dasharray:none;stroke-opacity:1"
       x="81.394028"
       y="157.84819"
       id="text18"><tspan
         sodipodi:role="line"
         id="tspan18"
         style="font-style:normal;font-variant:normal;font-weight:normal;font-stretch:normal;font-size:34.9651px;font-family:Silom;-inkscape-font-specification:'Silom, Normal';font-variant-ligatures:normal;font-variant-caps:normal;font-variant-numeric:normal;font-variant-east-asian:normal;fill:#ffffff;fill-opacity:1;stroke:#c0c0c0;stroke-width:4.32257e-08;stroke-dasharray:none;stroke-opacity:1"
         x="81.394028"
         y="157.84819">WDDS</tspan></text></g><metadata
     id="metadata1"><rdf:RDF><cc:Work
         rdf:about="" /></rdf:RDF></metadata></svg>
